<?xml version="1.0" standalone="no"?>
<!DOCTYPE svg PUBLIC "-//W3C//DTD SVG 20010904//EN"
 "http://www.w3.org/TR/2001/REC-SVG-20010904/DTD/svg10.dtd">
<svg version="1.0" xmlns="http://www.w3.org/2000/svg"
 width="27.000000pt" height="49.000000pt" viewBox="0 0 27.000000 49.000000"
 preserveAspectRatio="xMidYMid meet">

<g transform="translate(0.000000,49.000000) scale(0.100000,-0.100000)"
fill="#D30000" stroke="none">
<path d="M139 378 c-8 -9 -24 -18 -36 -22 -30 -10 -53 -65 -53 -130 l0 -56 80
0 c90 0 98 8 55 58 -14 17 -25 33 -25 36 0 3 17 3 39 0 60 -10 63 12 9 60 -25
23 -47 47 -50 55 -3 11 -6 11 -19 -1z"/>
<path d="M46 131 c-10 -11 -15 -25 -11 -30 8 -14 182 -15 190 -1 3 5 0 18 -7
30 -11 17 -23 20 -84 20 -57 0 -74 -4 -88 -19z"/>
</g>
</svg>
